<?xml version='1.0' encoding='utf-8'?>
<svg xmlns="http://www.w3.org/2000/svg" width="174.78mm" height="237.4mm" version="1.1" viewBox="0 0 174.78 237.4"> <g transform="translate(-17.609 -29.801)"> <g fill="none" stroke="#000" stroke-linecap="round" stroke-miterlimit="4"> <ellipse cx="105" cy="71.646" rx="75.406" ry="29.86" stop-color="#000000" stroke-linejoin="round" stroke-width="3.9688" style="paint-order:markers stroke fill"/> <path d="m29.6 72.142 21.246 161.86" stroke-linejoin="miter" stroke-width="3.9688"/> <path d="m180.4 71.999-21.159 161.27" stroke-linejoin="miter" stroke-width="3.9688"/> <path d="m105 101.51v152.95" stroke-linejoin="miter" stroke-width="3.9688"/> <path d="m61.666 96.304 16.366 155.1" stroke-linejoin="miter" stroke-width="3.9688"/> <path d="m148.47 96.592-13.408 153.59" stroke-linejoin="miter" stroke-width="3.9688"/> <path d="m167.23 172.33a62.93 28.227 0 0 1-61.137 24.489 62.93 28.227 0 0 1-63.241-23.389" stop-color="#000000" stroke-linejoin="round" stroke-width="3.9688" style="paint-order:markers stroke fill"/> <path d="m162.05 209.49a58.784 25.632 0 0 1-57.564 19.128 58.784 25.632 0 0 1-56.499-19.722" stop-color="#000000" stroke-linejoin="round" stroke-width="3.978" style="paint-order:markers stroke fill"/> <path d="m171.42 140.34a67.091 28.227 0 0 1-65.325 24.726 67.091 28.227 0 0 1-67.468-23.685" stop-color="#000000" stroke-linejoin="round" stroke-width="3.9688" style="paint-order:markers stroke fill"/> <path d="m175.83 107.05a71.496 29.879 0 0 1-69.621 26.225 71.496 29.879 0 0 1-71.924-25.116" stop-color="#000000" stroke-linejoin="round" stroke-width="3.9688" style="paint-order:markers stroke fill"/> <path d="m159.24 233.27a54.939 25.632 0 0 1-53.534 21.807 54.939 25.632 0 0 1-54.857-21.079" stop-color="#000000" stroke-linejoin="round" stroke-width="3.9688" style="paint-order:markers stroke fill"/> </g> </g> </svg>